<svg version="1.2" baseProfile="tiny-ps" xmlns="http://www.w3.org/2000/svg" viewBox="0 0 46 65" width="46" height="65">
	<title>banner-svg</title>
	<style>
		tspan { white-space:pre }
		.shp0 { fill: #9eff00 } 
		.shp1 { fill: #353535 } 
	</style>
	<path id="Layer" fill-rule="evenodd" class="shp0" d="M11.56 32.63L33.26 32.63L33.26 43.92L11.56 43.92L11.56 32.63Z" />
	<path id="Layer" fill-rule="evenodd" class="shp1" d="M6.08 61.29C5.94 61.19 5.81 61.07 5.69 60.94C5.58 60.81 5.48 60.68 5.39 60.53C5.3 60.38 5.23 60.22 5.17 60.06C5.12 59.9 5.08 59.73 5.05 59.56C3.96 52.93 2.25 36.87 8.68 25.74C12.08 19.86 17.96 16.48 23.77 16.39L25.23 13.87L18.88 10.21C18.37 9.92 18.24 9.21 18.55 8.66C18.88 8.1 19.55 7.88 20.06 8.17L30.12 13.97L36.03 3.75L33.29 2.17C32.78 1.88 32.64 1.17 32.96 0.62C33.29 0.05 33.98 -0.16 34.47 0.13L45.43 6.44C45.94 6.74 46.08 7.45 45.76 8C45.44 8.56 44.74 8.77 44.25 8.49L41.51 6.91L35.6 17.13L45.66 22.93C46.17 23.22 46.3 23.93 45.98 24.48C45.66 25.04 44.98 25.26 44.48 24.97L38.13 21.31L36.67 23.83C39.47 28.92 39.5 35.76 36.11 41.55C29.7 52.63 14.91 59.19 8.59 61.59C7.87 61.87 7.12 61.82 6.5 61.54L6.5 61.55C6.46 61.61 6.39 61.73 6.3 61.88L0.46 71.88C0.43 71.93 0.37 71.97 0.31 71.98C0.25 72 0.18 71.99 0.13 71.96C0.07 71.93 0.03 71.87 0.02 71.81C0 71.75 0.01 71.69 0.04 71.63L6.08 61.29L6.08 61.29ZM29.85 37.94C32.51 33.36 31.33 27.71 27.22 25.34C23.12 22.98 17.63 24.78 14.98 29.37C12.33 33.96 13.51 39.6 17.61 41.97C21.71 44.33 27.2 42.53 29.85 37.94ZM16.01 37.47C15.8 37.35 15.74 37.06 15.88 36.83C16.01 36.6 16.29 36.51 16.5 36.63L22.76 40.23C22.97 40.35 23.03 40.64 22.89 40.88C22.76 41.11 22.48 41.2 22.27 41.08L16.01 37.47ZM18.64 35.05C18.78 34.81 19.06 34.72 19.27 34.84L22.92 36.95C23.13 37.07 23.19 37.36 23.06 37.59C22.92 37.82 22.64 37.91 22.43 37.79L18.78 35.69C18.57 35.57 18.51 35.28 18.64 35.05ZM18.94 32.4C18.73 32.28 18.67 32 18.81 31.76C18.94 31.53 19.22 31.44 19.43 31.56L25.69 35.17C25.9 35.29 25.96 35.57 25.82 35.81C25.69 36.04 25.41 36.13 25.2 36.01L18.94 32.4L18.94 32.4ZM21.71 30.62C21.5 30.5 21.44 30.21 21.57 29.98C21.71 29.74 21.99 29.65 22.2 29.77L25.85 31.88C26.06 32 26.12 32.29 25.99 32.52C25.85 32.75 25.57 32.85 25.37 32.73L21.71 30.62L21.71 30.62ZM21.87 27.33C21.66 27.21 21.6 26.93 21.74 26.69C21.87 26.46 22.15 26.37 22.36 26.49L28.62 30.1C28.83 30.22 28.89 30.5 28.75 30.74C28.62 30.97 28.34 31.06 28.13 30.94L21.87 27.33ZM38.8 5.71L38.43 5.49C38.25 5.39 38.01 5.48 37.89 5.69L32.78 14.51C32.66 14.73 32.71 14.98 32.88 15.08L33.26 15.3C33.43 15.4 33.67 15.31 33.8 15.1L38.9 6.28C39.02 6.06 38.98 5.81 38.8 5.71Z" />
	<path id="Layer" fill-rule="evenodd" class="shp1" d="M143.04 57.12L143.04 63.16L136.43 63.16L136.43 39.44L143.04 39.44L143.04 48.7L149.88 39.44L158.43 39.44L148.31 52.85L151.52 56.56L159.25 56.56L159.25 39.44L176.46 39.44L176.46 46.02L165.85 46.02L165.85 48L176.46 48L176.46 54.6L165.85 54.6L165.85 56.56L176.46 56.56L176.46 63.16L148.32 63.16L143.04 57.12ZM72.24 39.44L72.24 46.02L66.14 46.02L66.14 63.16L59.53 63.16L59.53 46.02L53.43 46.02L53.43 39.44L72.24 39.44ZM135.62 46.02L126.39 46.02C124.9 46.02 123.64 46.53 122.61 47.56C121.59 48.59 121.09 49.83 121.09 51.29C121.09 52.75 121.61 54 122.64 55.02C123.67 56.05 124.92 56.56 126.38 56.56L135.62 56.56L135.62 63.16L126.38 63.16C123.09 63.16 120.29 62 117.97 59.69C115.65 57.38 114.5 54.58 114.5 51.29C114.5 48.02 115.65 45.22 117.97 42.91C120.29 40.59 123.09 39.44 126.38 39.44L135.62 39.44L135.62 46.02ZM197.26 48.26C197.26 48.69 197.23 49.12 197.17 49.55C197.11 49.97 197.02 50.39 196.89 50.8C196.77 51.21 196.62 51.62 196.43 52.01C196.25 52.39 196.04 52.77 195.8 53.13C194.85 54.56 193.59 55.7 192.03 56.56L204.96 56.56L204.96 63.16L187.81 63.16L183.89 58.92L183.89 63.16L177.28 63.16L177.28 39.44L188.5 39.44C190.93 39.46 193 40.33 194.7 42.06C196.41 43.77 197.26 45.84 197.26 48.26L197.26 48.26ZM83.58 63.16L79.66 58.92L79.66 63.16L73.06 63.16L73.06 39.44L84.27 39.44C86.7 39.46 88.77 40.33 90.47 42.06C92.18 43.77 93.03 45.84 93.03 48.26C93.03 48.69 93 49.12 92.94 49.55C92.88 49.97 92.79 50.39 92.67 50.8C92.54 51.21 92.39 51.62 92.2 52.01C92.02 52.39 91.81 52.77 91.57 53.12C90.62 54.55 89.36 55.7 87.8 56.56L92.78 56.56L99.57 39.44L107.54 39.44L116.63 63.16L109.03 63.16L108.13 60.82L98.97 60.82L98.08 63.16L83.58 63.16L83.58 63.16ZM105.8 54.63L103.56 48.7L101.31 54.63L105.8 54.63ZM183.89 50.23L187.91 50.23C188.36 50.23 188.74 50.07 189.06 49.75C189.38 49.43 189.54 49.05 189.54 48.61C189.54 48.16 189.38 47.78 189.06 47.46C188.74 47.14 188.36 46.98 187.91 46.98L183.89 46.98L183.89 50.23ZM83.68 50.23C84.13 50.23 84.51 50.07 84.83 49.75C84.91 49.68 84.98 49.6 85.04 49.51C85.1 49.42 85.15 49.33 85.19 49.23C85.23 49.13 85.26 49.03 85.28 48.92C85.3 48.82 85.31 48.71 85.31 48.61C85.31 48.16 85.15 47.78 84.83 47.46C84.76 47.38 84.67 47.31 84.59 47.25C84.5 47.19 84.4 47.14 84.31 47.1C84.21 47.06 84.11 47.03 84 47.01C83.9 46.99 83.79 46.98 83.68 46.99L79.67 46.99L79.67 50.23L83.68 50.23ZM53.43 8.84L60.04 8.84L60.04 32.56L53.43 32.56L53.43 8.84ZM155.18 8.84L161.79 8.84L161.79 32.56L155.18 32.56L155.18 8.84ZM93.24 20.36L93.24 8.84L99.84 8.84L99.84 20.36C99.84 22.46 99.46 24.34 98.7 26C98.57 26.3 98.42 26.6 98.25 26.9C98.09 27.19 97.91 27.47 97.72 27.75C97.52 28.02 97.32 28.29 97.1 28.54C96.88 28.8 96.65 29.04 96.41 29.27C94.97 30.66 93.17 31.62 91.03 32.15C90.79 32.21 90.54 32.26 90.3 32.31C90.05 32.36 89.8 32.4 89.56 32.43C89.31 32.46 89.06 32.49 88.81 32.51C88.56 32.54 88.31 32.55 88.06 32.56L83.67 32.56L83.67 25.96L88.01 25.96C88.21 25.94 88.42 25.91 88.64 25.87C88.8 25.84 88.96 25.8 89.12 25.76C89.28 25.72 89.44 25.68 89.59 25.63C89.75 25.57 89.9 25.52 90.06 25.45C90.21 25.39 90.36 25.32 90.5 25.24C92.33 24.29 93.24 22.67 93.24 20.36ZM100.65 8.84L117.87 8.84L117.87 15.42L107.26 15.42L107.26 17.4L117.87 17.4L117.87 24L107.26 24L107.26 25.96L117.87 25.96L117.87 32.56L100.65 32.56L100.65 8.84ZM76.24 8.84L82.85 8.84L82.85 32.56L76.24 32.56L67.46 20.22L67.46 32.56L60.86 32.56L60.86 8.84L67.43 8.84L76.24 21.17L76.24 8.84ZM204.39 8.84L211 8.84L211 32.56L204.39 32.56L195.62 20.22L195.62 32.56L189.01 32.56L189.01 8.84L195.59 8.84L204.39 21.17L204.39 8.84ZM174.5 8.84L176.3 8.84C179.59 8.84 182.4 10 184.71 12.31C187.03 14.62 188.19 17.42 188.19 20.69C188.19 23.98 187.03 26.78 184.71 29.09C182.4 31.4 179.59 32.56 176.3 32.56L174.5 32.56C171.21 32.56 168.4 31.4 166.09 29.09C163.77 26.78 162.61 23.98 162.61 20.69C162.61 17.42 163.77 14.62 166.09 12.31C168.4 9.99 171.21 8.84 174.5 8.84L174.5 8.84ZM141.65 15.42L130.58 15.42C129.09 15.42 127.84 15.93 126.81 16.96C125.79 17.98 125.29 19.23 125.29 20.69C125.29 22.16 125.81 23.4 126.84 24.43C127.87 25.45 129.12 25.96 130.58 25.96L139.81 25.96L139.81 32.56L130.58 32.56C127.29 32.56 124.49 31.4 122.17 29.09C119.85 26.78 118.69 23.98 118.69 20.69C118.69 17.42 119.85 14.62 122.17 12.31C124.49 9.99 127.29 8.84 130.58 8.84L154.36 8.84L154.36 15.42L148.26 15.42L148.26 32.56L141.65 32.56L141.65 15.42L141.65 15.42ZM176.3 25.96C177.77 25.96 179.01 25.45 180.04 24.42C181.08 23.4 181.6 22.15 181.6 20.69C181.6 19.23 181.09 17.98 180.07 16.96C179.05 15.93 177.79 15.42 176.3 15.42L174.5 15.42C173.01 15.42 171.75 15.93 170.73 16.96C169.71 17.98 169.2 19.23 169.2 20.69C169.2 22.15 169.72 23.4 170.76 24.42C171.79 25.45 173.03 25.96 174.5 25.96L176.3 25.96Z" />
</svg>