<?xml version="1.0" standalone="no"?>
<!DOCTYPE svg PUBLIC "-//W3C//DTD SVG 20010904//EN"
 "http://www.w3.org/TR/2001/REC-SVG-20010904/DTD/svg10.dtd">
<svg version="1.0" xmlns="http://www.w3.org/2000/svg"
 width="1536.000000pt" height="1152.000000pt" viewBox="0 0 1536.000000 1152.000000"
 preserveAspectRatio="xMidYMid meet">

<g transform="translate(0.000000,1152.000000) scale(0.100000,-0.100000)"
fill="#000000" stroke="none">
<path d="M7430 10713 c-387 -27 -648 -68 -975 -155 -463 -122 -973 -345 -1285
-562 -603 -418 -1122 -943 -1492 -1511 -403 -617 -635 -1257 -725 -1995 -25
-210 -26 -857 0 -1048 115 -864 418 -1616 928 -2308 241 -328 593 -682 924
-931 587 -441 1349 -775 2070 -908 291 -53 381 -60 825 -60 449 0 532 6 840
56 825 136 1608 499 2285 1060 139 115 482 460 601 604 237 288 402 536 570
860 269 520 445 1115 509 1719 17 169 21 659 5 831 -74 819 -343 1582 -792
2250 -180 267 -334 453 -582 701 -326 325 -623 555 -1009 780 -573 335 -1351
561 -2117 614 -132 9 -470 11 -580 3z m284 -132 c38 -26 55 -57 56 -104 0 -58
-22 -98 -94 -167 -36 -36 -66 -69 -66 -75 0 -6 30 -9 80 -7 l80 4 0 -46 0 -46
-150 0 c-145 0 -150 1 -150 20 0 37 32 84 116 170 93 96 111 128 92 168 -23
47 -89 42 -106 -8 -11 -31 -25 -35 -70 -23 -20 5 -23 10 -18 36 7 36 21 54 61
79 41 25 130 24 169 -1z m292 0 c53 -33 69 -80 69 -211 0 -93 -4 -122 -19
-154 -25 -50 -68 -76 -128 -76 -39 0 -54 6 -83 31 -42 38 -57 86 -59 194 -2
155 46 235 142 235 28 0 59 -8 78 -19z m1214 -441 l0 -230 -45 0 -45 0 0 166
0 165 -32 -24 c-18 -14 -43 -28 -55 -32 -21 -6 -23 -3 -23 32 0 35 4 41 34 55
18 9 49 35 67 57 27 32 41 41 67 41 l32 0 0 -230z m-2735 180 l0 -35 -80 -3
c-83 -3 -95 -9 -95 -50 0 -21 3 -22 35 -16 45 8 114 -25 139 -67 43 -73 13
-189 -57 -226 -45 -23 -131 -21 -165 4 -27 20 -71 88 -62 96 3 2 22 7 42 11
34 6 38 4 52 -22 46 -88 145 -12 113 86 -16 48 -51 62 -97 38 -32 -16 -100
-22 -100 -9 0 3 10 57 21 120 l21 114 117 -3 116 -3 0 -35z m652 -516 c3 -9 6
-32 7 -51 l1 -36 -155 -32 c-345 -73 -663 -175 -934 -299 -44 -21 -82 -33 -86
-29 -4 4 -17 25 -29 46 l-23 37 99 46 c302 141 579 233 898 300 184 38 213 40
222 18z m1368 -16 c313 -62 675 -183 927 -309 46 -23 84 -43 86 -44 5 -4 -37
-85 -44 -85 -3 0 -63 25 -133 56 -188 84 -351 147 -494 193 -119 38 -387 100
-500 116 l-47 7 6 37 c12 72 -4 70 199 29z m1695 -258 l0 -230 -45 0 -45 0 0
161 0 160 -29 -20 c-15 -11 -40 -25 -55 -31 -25 -9 -26 -8 -26 29 0 36 4 41
46 66 25 15 55 42 66 61 16 28 26 34 54 34 l34 0 0 -230z m293 180 c36 -40 37
-97 3 -137 l-25 -28 30 -31 c84 -87 15 -224 -112 -224 -48 0 -97 19 -123 49
-42 46 -27 163 23 191 19 9 18 11 -10 39 -63 63 -22 167 72 181 63 9 110 -4
142 -40z m-5383 -220 l0 -230 -40 0 -40 0 0 160 c0 88 -3 160 -7 160 -5 0 -26
-12 -48 -25 -54 -33 -65 -32 -65 9 0 30 6 37 45 61 25 14 56 42 68 60 18 28
29 35 55 35 l32 0 0 -230z m266 211 c43 -19 74 -67 74 -113 -1 -43 -37 -103
-104 -168 -36 -35 -66 -68 -66 -72 0 -4 38 -8 85 -8 l85 0 0 -40 0 -40 -155 0
c-100 0 -155 4 -155 10 0 35 42 96 119 175 91 93 107 119 97 161 -14 53 -98
52 -112 -1 -5 -22 -11 -25 -51 -25 -44 0 -45 1 -39 28 23 93 126 137 222 93z
m2564 -41 c212 -16 380 -41 380 -56 0 -8 -18 -121 -40 -251 -21 -131 -57 -355
-80 -498 -22 -143 -45 -289 -51 -325 l-10 -66 -82 10 c-45 5 -232 10 -415 10
-325 1 -333 1 -337 21 -2 11 -10 65 -19 120 -8 55 -47 299 -86 543 -40 244
-70 445 -68 448 8 7 227 35 338 44 154 11 328 11 470 0z m-1841 -468 c31 -70
254 -513 423 -841 l69 -133 -38 -20 c-93 -50 -347 -229 -514 -363 l-126 -101
-47 55 c-26 31 -210 219 -409 419 l-362 363 99 96 c195 186 439 366 699 515
83 48 157 88 162 88 6 0 25 -35 44 -78z m3399 17 c264 -141 511 -321 797 -582
l60 -55 -410 -413 c-225 -228 -415 -414 -420 -413 -6 1 -71 48 -146 105 -221
171 -474 346 -521 361 -7 3 26 74 84 179 131 238 165 304 318 607 73 144 135
262 138 262 3 0 48 -23 100 -51z m-5257 -382 c56 -37 79 -96 79 -200 0 -107
-14 -159 -52 -198 -76 -76 -210 -51 -233 44 -7 26 -6 27 38 27 36 0 46 -4 50
-20 5 -21 49 -28 74 -12 16 10 33 57 33 89 0 25 -1 25 -18 10 -27 -25 -97 -22
-134 4 -56 40 -75 131 -40 199 38 76 134 103 203 57z m7149 -143 l0 -144 30 0
c28 0 30 -2 30 -40 0 -38 -2 -40 -30 -40 -29 0 -30 -2 -30 -45 l0 -45 -40 0
-40 0 0 45 0 45 -95 0 -95 0 0 38 c0 30 18 63 100 184 97 141 101 146 135 146
l35 0 0 -144z m-6393 24 l32 -31 -96 -101 c-237 -250 -485 -591 -612 -844
l-21 -42 -40 20 c-22 11 -40 24 -40 29 0 17 131 244 207 360 84 129 191 272
288 387 74 87 233 254 243 254 3 0 21 -14 39 -32z m5587 -65 c166 -174 291
-329 424 -528 76 -115 222 -362 222 -377 0 -13 -82 -50 -90 -41 -4 4 -37 62
-74 128 -162 287 -387 587 -585 780 -33 33 -61 63 -61 66 0 12 51 69 61 69 6
0 52 -44 103 -97z m-3220 -294 c12 -60 9 -68 -31 -75 -183 -31 -416 -102 -589
-180 -116 -52 -107 -53 -149 19 l-16 27 73 34 c187 85 368 144 566 186 127 27
138 26 146 -11z m946 -10 c137 -33 355 -111 465 -166 39 -20 72 -37 74 -39 5
-5 -42 -84 -51 -84 -4 0 -52 20 -105 44 -134 60 -328 120 -483 151 -72 14
-132 25 -133 25 -2 0 1 25 7 56 l10 56 45 -7 c25 -3 102 -20 171 -36z m-295
-122 l80 -12 -3 -30 c-2 -16 -23 -154 -48 -305 -69 -422 -182 -1130 -204
-1275 -31 -203 -17 -180 -116 -180 -77 0 -85 2 -89 20 -3 11 -36 223 -75 470
-39 248 -102 641 -141 874 -38 233 -69 425 -69 426 0 2 132 19 235 29 65 7
344 -5 430 -17z m-1090 -642 c324 -639 532 -1038 603 -1154 l21 -34 -57 -34
c-31 -19 -67 -44 -79 -55 l-22 -21 -93 99 c-120 129 -505 515 -888 888 l-304
297 73 67 c101 92 191 163 286 226 104 70 238 145 246 137 4 -3 100 -190 214
-416z m1909 368 c174 -100 368 -244 469 -350 l38 -40 -78 -74 c-315 -299 -975
-953 -1105 -1095 l-103 -112 -37 34 c-20 18 -56 43 -78 54 -39 20 -41 22 -27
43 52 80 271 499 623 1194 110 216 203 393 208 393 5 0 45 -21 90 -47z m-2821
-377 c-141 -152 -268 -325 -353 -480 -23 -42 -43 -76 -45 -76 -2 0 -24 9 -50
20 l-47 20 38 68 c93 169 213 334 363 500 l84 93 38 -37 38 -37 -66 -71z
m3478 87 c130 -135 289 -353 383 -525 l36 -66 -45 -18 c-25 -9 -47 -15 -48
-13 -2 2 -18 31 -37 64 -60 110 -190 283 -384 511 l-30 34 35 30 c19 16 36 29
39 30 3 0 26 -21 51 -47z m-4037 -513 c4 -5 -1 -21 -13 -37 -28 -39 -89 -225
-161 -498 -34 -126 -65 -234 -69 -238 -4 -4 -194 21 -422 57 -228 36 -481 74
-564 86 -82 12 -152 24 -154 26 -8 7 30 198 69 349 64 249 139 455 250 689
l41 87 507 -257 c279 -141 511 -260 516 -264z m5613 413 c90 -195 170 -413
227 -619 26 -95 89 -394 84 -399 -2 -2 -115 -20 -253 -40 -137 -20 -394 -61
-570 -90 -176 -29 -323 -50 -326 -47 -3 4 -14 48 -23 97 -35 181 -105 396
-191 581 l-44 94 277 139 c152 77 383 194 512 260 129 66 241 121 248 121 7 0
34 -44 59 -97z m-7557 -173 l0 -230 -40 0 -40 0 0 160 c0 88 -2 160 -5 160 -3
0 -23 -11 -45 -25 -55 -35 -70 -33 -70 10 0 30 5 37 39 54 37 20 91 73 91 92
0 5 16 9 35 9 l35 0 0 -230z m300 86 l0 -145 28 -3 c24 -3 27 -7 29 -40 1 -36
-1 -38 -28 -38 -28 0 -29 -2 -29 -45 l0 -45 -45 0 -45 0 0 45 0 45 -90 0 -90
0 0 43 c0 37 12 60 98 184 95 140 98 142 135 143 l37 0 0 -144z m8020 -96 l0
-230 -45 0 -45 0 0 161 0 160 -29 -20 c-15 -11 -40 -25 -55 -31 -25 -9 -26 -8
-26 29 0 36 4 41 46 66 25 15 55 42 66 61 16 28 26 34 54 34 l34 0 0 -230z
m266 202 c23 -12 54 -69 54 -99 0 -21 -27 -64 -48 -76 -10 -7 -4 -16 25 -42
34 -30 38 -37 38 -81 0 -110 -111 -175 -220 -130 -60 26 -100 116 -51 116 13
0 31 3 40 6 10 4 16 1 16 -8 0 -23 39 -58 65 -58 28 0 65 43 65 75 0 12 -10
35 -21 50 -17 21 -28 26 -50 23 -26 -4 -29 -2 -29 24 0 23 7 32 35 45 61 29
59 95 -3 101 -25 3 -35 -2 -49 -25 -17 -27 -39 -32 -80 -18 -17 6 2 57 32 85
40 38 123 43 181 12z m-6307 -587 c83 -49 580 -307 931 -485 506 -255 605
-309 601 -322 -3 -7 -14 -41 -25 -75 -12 -36 -27 -63 -35 -63 -7 0 -349 52
-760 115 -410 63 -806 123 -879 133 -73 11 -134 21 -136 23 -9 10 50 258 88
374 45 135 133 335 147 335 4 0 35 -16 68 -35z m3972 -27 c79 -156 174 -452
194 -605 7 -53 7 -53 -20 -53 -36 0 -102 -10 -986 -145 -411 -63 -756 -115
-768 -115 -14 0 -21 6 -21 20 0 10 -9 44 -21 75 -12 31 -19 58 -17 60 1 1 127
65 278 140 298 149 1027 526 1205 624 61 33 113 60 117 61 4 0 22 -28 39 -62z
m-5838 -368 c5 -4 2 -54 -7 -111 -43 -293 -45 -652 -6 -953 11 -87 19 -160 18
-161 -2 -1 -22 -5 -44 -9 -31 -4 -43 -2 -47 8 -3 8 -14 76 -24 152 -14 109
-18 207 -18 454 0 302 3 351 37 568 l11 72 36 -6 c20 -4 40 -10 44 -14z m7701
-120 c30 -236 39 -466 27 -668 -11 -186 -38 -420 -50 -440 -4 -6 -24 -8 -49
-5 -33 4 -41 9 -38 22 3 9 13 75 23 146 26 195 25 679 -1 870 -29 203 -29 199
19 205 22 3 43 3 47 0 3 -3 13 -61 22 -130z m-6225 -116 c2 -2 -2 -52 -10
-111 -17 -133 -18 -428 -1 -547 7 -49 9 -92 5 -96 -4 -5 -27 -11 -50 -15 l-42
-7 -8 49 c-13 80 -10 557 6 655 l13 88 42 -6 c22 -4 43 -8 45 -10z m4736 -6
c33 -143 32 -574 -1 -755 l-6 -31 -41 12 c-36 10 -42 16 -40 37 1 13 7 76 13
139 16 186 9 468 -15 582 -5 22 -2 27 17 31 54 10 68 7 73 -15z m-2302 -39
c232 -78 323 -361 177 -551 -168 -218 -491 -186 -613 61 -29 59 -32 75 -32
151 0 70 5 95 27 141 81 175 265 257 441 198z m4417 -99 c25 -13 48 -43 55
-72 6 -25 4 -28 -18 -28 -14 0 -32 -2 -39 -5 -9 -4 -19 4 -26 20 -8 18 -19 25
-40 25 -38 0 -62 -29 -69 -81 l-6 -42 24 16 c54 38 148 7 175 -58 44 -107 -13
-214 -118 -223 -67 -5 -113 23 -145 88 -31 59 -33 213 -4 275 22 48 58 83 97
95 30 8 87 3 114 -10z m-8952 -277 l-3 -228 -42 -3 -43 -3 0 164 0 165 -55
-30 -55 -30 0 40 c0 37 4 42 45 66 24 15 52 40 62 56 14 25 24 30 55 30 l38 0
-2 -227z m230 0 l-3 -228 -42 -3 -43 -3 0 165 c0 152 -6 187 -25 156 -6 -10
-78 -50 -90 -50 -3 0 -5 17 -5 38 0 34 4 40 34 54 18 9 49 35 67 57 29 34 40
41 72 41 l37 0 -2 -227z m4907 -48 c110 -19 497 -82 859 -140 363 -58 662
-107 664 -110 8 -8 -27 -181 -63 -302 -37 -130 -134 -371 -160 -401 -2 -2 -43
19 -91 46 -166 91 -635 335 -1250 649 l-271 138 13 30 c7 17 18 55 25 86 l11
57 32 -9 c17 -5 121 -25 231 -44z m-1153 -2 c4 -24 16 -64 28 -89 11 -26 19
-48 18 -49 -2 0 -41 -18 -88 -39 -293 -133 -1335 -664 -1460 -744 l-65 -42
-47 98 c-74 152 -150 397 -182 589 -5 28 -2 32 22 37 52 11 213 36 872 140
366 58 708 114 760 125 129 26 133 25 142 -26z m1495 -913 l574 -575 -85 -82
c-109 -105 -272 -226 -409 -304 -59 -34 -109 -60 -111 -58 -1 2 -87 171 -191
374 -334 657 -584 1134 -627 1197 -10 14 -18 29 -18 32 0 3 24 21 53 39 28 19
65 48 81 65 l29 31 65 -72 c36 -40 324 -331 639 -647z m-1278 610 c23 -11 40
-24 38 -28 -108 -184 -292 -536 -622 -1187 -115 -225 -209 -411 -209 -412 -4
-6 -257 153 -342 214 -104 75 -264 209 -264 221 1 4 287 295 638 648 l637 641
42 -38 c22 -21 60 -47 82 -59z m-2275 -57 c24 -104 155 -496 204 -608 l38 -90
-175 -91 c-97 -49 -332 -170 -523 -267 l-348 -177 -34 68 c-88 174 -183 434
-241 657 -33 125 -89 395 -83 400 2 2 251 42 553 89 303 48 555 89 560 91 26
9 33 0 49 -72z m5609 -38 c364 -41 538 -63 544 -69 2 -2 -6 -54 -18 -117 -39
-220 -107 -459 -194 -684 -56 -145 -136 -315 -147 -315 -5 0 -240 118 -522
262 l-513 262 33 67 c37 73 79 212 119 394 20 89 55 268 55 281 0 0 55 -8 123
-18 67 -10 301 -38 520 -63z m-2902 -701 c65 -407 129 -809 142 -896 l23 -156
-100 -13 c-56 -8 -168 -13 -251 -13 -140 1 -200 8 -334 36 l-53 12 6 50 c6 56
266 1695 270 1711 2 6 40 9 92 9 l88 -1 117 -739z m-2241 19 c88 -157 181
-289 290 -412 l82 -93 -32 -32 -32 -31 -55 60 c-136 147 -257 314 -357 491
l-56 99 43 22 c23 12 43 22 44 23 1 0 34 -57 73 -127z m4186 106 l34 -21 -42
-81 c-81 -155 -229 -364 -371 -522 l-45 -50 -36 34 c-20 19 -36 39 -36 44 0 5
28 41 63 81 144 163 292 365 357 489 14 26 29 47 34 47 5 0 24 -9 42 -21z
m1994 -259 l0 -230 -40 0 -40 0 0 165 c0 151 -6 186 -25 155 -6 -10 -78 -50
-90 -50 -3 0 -5 17 -5 38 0 34 4 40 34 54 18 9 49 35 67 57 27 32 41 41 67 41
l32 0 0 -230z m261 213 c16 -10 39 -38 52 -63 18 -38 22 -62 22 -150 0 -90 -4
-112 -24 -153 -27 -55 -62 -77 -123 -77 -55 0 -100 27 -124 76 -15 31 -19 61
-19 144 0 127 20 191 69 221 39 24 108 25 147 2z m-8528 -70 c59 -30 70 -122
20 -169 -24 -22 -24 -23 -4 -34 50 -26 66 -120 31 -178 -53 -87 -213 -81 -262
9 -31 58 -17 132 33 167 20 14 20 14 1 28 -33 23 -47 69 -34 113 7 21 20 45
29 54 42 37 125 42 186 10z m739 -626 c128 -248 345 -550 565 -785 l106 -114
-32 -31 -32 -32 -80 85 c-194 207 -356 416 -497 640 -58 93 -162 275 -162 285
0 4 70 44 80 45 3 0 26 -42 52 -93z m6856 73 l32 -20 -30 -60 c-130 -258 -386
-616 -608 -850 l-90 -95 -33 32 -33 32 100 103 c213 221 447 548 589 820 17
32 32 58 35 58 3 0 20 -9 38 -20z m-5028 -251 c102 -80 227 -161 344 -224 47
-26 86 -49 86 -52 0 -3 -8 -17 -18 -31 -74 -108 -492 -908 -517 -989 -3 -13
-11 -23 -17 -23 -19 0 -194 97 -319 176 -193 123 -351 245 -556 433 l-93 85
363 365 c199 201 384 394 411 428 l50 61 90 -82 c50 -44 129 -111 176 -147z
m3777 -197 l423 -417 -100 -94 c-194 -182 -385 -330 -590 -459 -106 -66 -269
-156 -274 -151 -1 2 -73 141 -158 309 -161 316 -306 586 -364 678 -19 29 -34
56 -34 60 0 4 35 25 77 47 172 90 441 284 553 399 24 25 44 46 45 46 0 0 190
-188 422 -418z m-3087 15 c128 -50 257 -87 418 -120 l107 -22 -8 -52 c-10 -63
-8 -62 -146 -33 -183 39 -368 101 -543 182 l-107 50 27 48 27 48 55 -28 c30
-15 107 -48 170 -73z m1978 54 c15 -37 17 -52 9 -59 -34 -24 -231 -108 -349
-146 -127 -43 -343 -96 -386 -96 -21 0 -32 24 -32 77 0 26 5 34 23 37 12 3 69
15 127 26 140 29 356 101 477 160 54 27 101 49 104 49 4 1 16 -21 27 -48z
m2382 -391 l0 -230 -45 0 -45 0 0 161 0 160 -29 -20 c-15 -11 -40 -25 -55 -31
-25 -9 -26 -8 -26 28 0 33 5 40 36 57 20 11 52 39 71 62 27 33 42 43 64 43
l29 0 0 -230z m328 178 l-3 -43 -82 -3 c-57 -2 -83 -7 -83 -15 0 -7 -3 -22 -6
-33 -5 -20 -3 -21 38 -17 142 16 211 -163 103 -267 -30 -29 -43 -34 -92 -37
-72 -5 -119 18 -146 71 -23 43 -14 56 38 56 23 0 34 -7 47 -30 13 -22 24 -30
46 -30 41 0 67 33 67 85 0 74 -57 108 -113 69 -31 -21 -95 -11 -88 14 3 9 12
58 21 107 9 50 18 96 20 103 3 9 37 12 120 12 l116 0 -3 -42z m-7440 -270 l2
-228 -45 0 -45 0 0 160 c0 146 -6 181 -25 150 -9 -15 -82 -50 -89 -43 -3 4 -6
19 -6 34 0 22 10 35 45 59 24 17 56 46 71 66 22 29 33 34 58 32 l31 -3 3 -227z
m280 206 c22 -14 60 -80 51 -87 -2 -2 -21 -7 -42 -10 -30 -5 -39 -2 -44 11 -9
23 -23 32 -55 32 -31 0 -58 -40 -58 -85 0 -25 14 -34 25 -15 10 17 88 11 121
-9 43 -26 69 -94 60 -156 -13 -82 -82 -134 -166 -122 -53 7 -86 32 -112 85
-33 68 -33 216 0 284 27 54 39 66 89 84 42 15 96 10 131 -12z m3762 -121 c0
-65 152 -1007 176 -1092 8 -29 14 -55 11 -57 -2 -2 -75 -13 -163 -25 -227 -31
-659 -32 -883 -1 -84 11 -156 23 -159 26 -6 7 2 64 72 506 31 190 66 419 78
509 l23 163 50 -6 c252 -30 497 -31 695 -2 47 7 88 10 93 8 4 -2 7 -15 7 -29z
m2216 -782 c43 -19 74 -67 74 -113 -1 -45 -40 -110 -105 -171 -36 -34 -65 -65
-65 -69 0 -4 38 -8 85 -8 l85 0 0 -40 0 -40 -156 0 -155 0 7 23 c18 58 30 75
113 161 92 95 107 121 97 162 -13 51 -99 51 -112 -1 -5 -22 -11 -25 -51 -25
-37 0 -44 3 -39 16 3 9 6 22 6 29 0 7 12 27 26 44 42 51 120 64 190 32z
m-5106 -81 c0 -19 -15 -52 -39 -88 -64 -94 -110 -222 -111 -304 0 -26 -3 -28
-43 -28 l-44 0 8 59 c13 93 61 213 115 289 l16 22 -101 0 -101 0 0 40 0 40
150 0 150 0 0 -30z m4262 -92 c-15 -14 -277 -129 -404 -177 -219 -82 -481
-154 -693 -191 -110 -19 -115 -17 -115 37 0 35 0 35 95 53 313 60 749 201
1005 324 l74 36 23 -37 c12 -21 19 -41 15 -45z m-3455 26 c306 -143 652 -253
976 -309 101 -18 102 -18 91 -72 l-6 -30 -106 19 c-329 58 -682 171 -995 317
-104 49 -108 51 -96 73 12 25 29 48 35 48 1 0 47 -21 101 -46z m190 -696 l3
-226 -45 -4 -45 -3 0 162 c0 149 -6 184 -25 153 -6 -10 -78 -50 -90 -50 -3 0
-5 17 -5 38 0 34 4 40 34 54 19 9 51 37 72 63 33 38 44 45 69 43 l30 -3 2
-227z m280 178 c42 -46 56 -102 51 -207 -7 -142 -50 -199 -158 -207 -57 -4
-61 -3 -95 31 -41 41 -45 72 -12 81 39 10 55 7 62 -14 8 -25 46 -35 74 -21 11
6 25 28 31 49 16 60 14 65 -20 47 -58 -30 -125 -10 -160 48 -27 43 -27 131 0
174 48 79 163 89 227 19z m2453 -196 l0 -230 -45 0 -45 0 0 165 0 165 -42 -30
c-56 -41 -68 -39 -68 9 0 33 4 40 30 51 30 13 90 72 90 90 0 6 18 10 40 10
l40 0 0 -230z m330 190 c0 -18 -17 -56 -45 -98 -48 -75 -90 -186 -101 -269
l-7 -53 -38 0 c-39 0 -39 0 -39 39 0 58 44 187 89 261 l39 65 -99 3 -99 3 0
39 0 40 150 0 150 0 0 -30z m-1503 -193 c45 -50 46 -102 2 -146 -20 -20 -25
-31 -16 -31 29 0 67 -59 67 -103 0 -155 -231 -200 -290 -57 -15 37 -13 40 39
47 33 5 41 3 41 -10 0 -24 28 -47 57 -47 38 0 63 27 63 68 0 46 -24 72 -68 72
-27 0 -33 3 -28 16 3 9 6 23 6 33 0 10 12 20 33 26 28 9 32 15 35 47 3 32 -1
40 -22 49 -20 10 -30 9 -51 -5 -14 -9 -25 -23 -25 -31 0 -16 -20 -19 -58 -9
-19 6 -22 11 -17 33 15 60 70 94 144 88 47 -3 59 -9 88 -40z"/>
<path d="M7894 10505 c-23 -35 -17 -256 8 -281 27 -27 65 -11 77 34 14 47 14
176 1 221 -16 56 -58 69 -86 26z"/>
<path d="M10350 9670 c-38 -38 -18 -90 35 -90 54 0 76 64 33 94 -30 21 -44 20
-68 -4z"/>
<path d="M10341 9487 c-39 -47 -8 -127 49 -127 53 0 82 87 42 123 -22 20 -75
22 -91 4z"/>
<path d="M4132 8764 c-29 -20 -32 -112 -4 -137 54 -49 118 20 92 98 -10 32
-35 55 -57 55 -5 0 -19 -7 -31 -16z"/>
<path d="M11258 8615 c-29 -42 -43 -72 -37 -76 10 -6 80 -2 87 5 1 2 2 35 0
72 l-3 69 -47 -70z"/>
<path d="M3666 7390 l-46 -70 50 0 50 0 0 70 c0 39 -2 70 -4 70 -1 0 -24 -31
-50 -70z"/>
<path d="M7665 6116 c-103 -46 -124 -181 -40 -255 42 -36 73 -46 123 -37 76
12 127 73 127 151 0 57 -18 91 -67 128 -33 25 -104 31 -143 13z"/>
<path d="M12134 5979 c-21 -23 -24 -82 -5 -117 17 -32 58 -39 84 -14 30 30 29
108 -2 134 -30 24 -53 23 -77 -3z"/>
<path d="M12025 4786 c-32 -49 -31 -248 1 -281 23 -22 51 -18 70 10 13 20 17
50 17 135 0 85 -4 115 -17 135 -21 31 -51 32 -71 1z"/>
<path d="M3492 4734 c-24 -17 -30 -62 -10 -82 7 -7 24 -12 38 -12 33 0 50 17
50 51 0 24 -30 59 -50 59 -3 0 -16 -7 -28 -16z"/>
<path d="M3500 4563 c-25 -9 -40 -35 -40 -70 0 -61 66 -96 103 -55 20 22 23
95 5 110 -18 14 -50 21 -68 15z"/>
<path d="M4266 3364 c-38 -38 -29 -118 16 -143 23 -13 28 -13 52 2 22 15 26
25 26 67 0 75 -52 116 -94 74z"/>
<path d="M6389 1973 c-20 -23 -18 -108 3 -129 22 -22 68 -21 85 2 20 28 17
100 -7 124 -24 24 -63 26 -81 3z"/>
</g>
</svg>
