<svg version="1.2" baseProfile="tiny-ps" xmlns="http://www.w3.org/2000/svg" viewBox="0 0 20 20" width="20" height="20">
	<title>New Project</title>
	<style>
		tspan { white-space:pre }
		.shp0 { fill: #ff0000 } 
	</style>
	<path id="Shape 2" class="shp0" d="M18.39 7.45L12.96 6.63L10.53 1.47C10.39 1.16 10.22 1 10 1C9.78 1 9.61 1.16 9.47 1.47L7.04 6.63L1.61 7.45C1.2 7.52 1 7.7 1 7.98C1 8.13 1.09 8.32 1.27 8.52L5.21 12.53L4.28 18.21C4.26 18.31 4.26 18.39 4.26 18.43C4.26 18.59 4.29 18.73 4.37 18.84C4.45 18.95 4.56 19 4.71 19C4.84 19 4.98 18.95 5.14 18.86L10 16.19L14.86 18.86C15.01 18.95 15.15 19 15.29 19C15.43 19 15.54 18.95 15.62 18.84C15.7 18.73 15.73 18.59 15.73 18.43C15.73 18.33 15.73 18.26 15.72 18.21L14.79 12.53L18.72 8.52C18.91 8.32 19 8.14 19 7.98C19 7.7 18.8 7.52 18.39 7.45L18.39 7.45Z" />
</svg>